<svg width="25" height="24" viewBox="0 0 25 24" fill="none" xmlns="http://www.w3.org/2000/svg">
<path d="M20.5 17V7C20.5 4.832 16.837 3 12.5 3C8.163 3 4.5 4.832 4.5 7V17C4.5 19.168 8.163 21 12.5 21C16.837 21 20.5 19.168 20.5 17ZM12.5 5C16.191 5 18.431 6.507 18.5 6.994C18.431 7.493 16.191 9 12.5 9C8.809 9 6.569 7.493 6.5 7.006C6.569 6.507 8.809 5 12.5 5ZM6.5 9.607C7.979 10.454 10.137 11 12.5 11C14.863 11 17.021 10.454 18.5 9.607V11.994C18.431 12.493 16.191 14 12.5 14C8.809 14 6.569 12.493 6.5 12V9.607ZM6.5 17V14.607C7.979 15.454 10.137 16 12.5 16C14.863 16 17.021 15.454 18.5 14.607V16.994C18.431 17.493 16.191 19 12.5 19C8.809 19 6.569 17.493 6.5 17Z" fill="#222222"/>
</svg>
