<svg width="40" height="40" viewBox="0 0 40 40" fill="none" xmlns="http://www.w3.org/2000/svg">
<path fill-rule="evenodd" clip-rule="evenodd" d="M29.323 2.32254C26.3593 0.754199 23.0488 -0.043823 19.696 0.00185632C16.3432 0.0475357 13.0557 0.93545 10.1358 2.58395C7.21592 4.23245 4.75735 6.58862 2.98621 9.43579C1.21506 12.283 0.188181 15.5297 0 18.8776L5.61314 19.1931C5.74842 16.7863 6.48665 14.4522 7.75992 12.4054C9.0332 10.3586 10.8007 8.66471 12.8998 7.4796C14.9989 6.2945 17.3623 5.65617 19.7726 5.62333C22.1829 5.5905 24.5628 6.16419 26.6934 7.29167L29.323 2.32254ZM0.0648101 21.9605C0.393503 25.2975 1.55591 28.4983 3.44513 31.2685C5.33435 34.0387 7.88975 36.2895 10.8763 37.8138C13.8629 39.3382 17.1848 40.0872 20.5366 39.9919C23.8883 39.8967 27.1624 38.9603 30.0576 37.2688L27.2215 32.4145C25.1402 33.6305 22.7865 34.3037 20.3769 34.3722C17.9673 34.4407 15.5792 33.9022 13.4321 32.8064C11.2851 31.7105 9.44801 30.0924 8.08984 28.1009C6.73168 26.1094 5.89603 23.8084 5.65973 21.4094L0.0648101 21.9605ZM39.8604 21.8986C39.4558 26.1058 37.7286 30.0767 34.9269 33.2414L30.6207 29.429C32.6168 27.1744 33.8473 24.3453 34.1355 21.3479C34.4238 18.3505 33.7551 15.3389 32.2253 12.7451L37.1791 9.82333C39.3264 13.464 40.2651 17.6913 39.8604 21.8986Z" fill="#01944D"/>
</svg>
